<svg width="24" height="24" viewBox="0 0 24 24" fill="none" xmlns="http://www.w3.org/2000/svg">
<rect width="24" height="24" rx="12" fill="#00A0D7"/>
<path d="M8.21693 13.5216H9.97078V20.7419C9.97078 20.8845 10.0863 21 10.2288 21H13.2026C13.3451 21 13.4606 20.8845 13.4606 20.7419V13.5556H15.4768C15.6079 13.5556 15.7182 13.4572 15.7332 13.327L16.0394 10.6689C16.0478 10.5957 16.0247 10.5225 15.9757 10.4676C15.9268 10.4127 15.8567 10.3813 15.7831 10.3813H13.4607V8.71499C13.4607 8.2127 13.7312 7.95799 14.2647 7.95799C14.3407 7.95799 15.7831 7.95799 15.7831 7.95799C15.9257 7.95799 16.0412 7.84243 16.0412 7.69992V5.25997C16.0412 5.11742 15.9257 5.00191 15.7831 5.00191H13.6905C13.6757 5.00119 13.6429 5 13.5946 5C13.2315 5 11.9694 5.07128 10.9725 5.98844C9.86787 7.0048 10.0214 8.22173 10.0581 8.43272V10.3812H8.21693C8.07437 10.3812 7.95886 10.4967 7.95886 10.6393V13.2635C7.95886 13.406 8.07437 13.5216 8.21693 13.5216Z" fill="white"/>
</svg>
