<svg width="24" height="24" viewBox="0 0 24 24" fill="none" xmlns="http://www.w3.org/2000/svg">
<rect width="24" height="24" rx="12" fill="#00A0D7"/>
<g clip-path="url(#clip0)">
<path fill-rule="evenodd" clip-rule="evenodd" d="M17.6309 13.8068C18.1948 14.3573 18.79 14.8753 19.2958 15.4814C19.5192 15.7508 19.7307 16.0287 19.8925 16.3413C20.1218 16.7856 19.9142 17.2745 19.5157 17.3011L17.0391 17.3C16.4004 17.353 15.8908 17.0958 15.4624 16.6591C15.1195 16.3098 14.8019 15.9381 14.4722 15.5771C14.337 15.4295 14.1956 15.2906 14.0265 15.1809C13.6885 14.9614 13.395 15.0286 13.2018 15.3812C13.005 15.7399 12.9604 16.137 12.9411 16.5367C12.9145 17.1199 12.7383 17.2732 12.1524 17.2999C10.9005 17.3589 9.71237 17.1695 8.60862 16.538C7.63552 15.9812 6.88092 15.1952 6.22412 14.3054C4.94532 12.5727 3.96602 10.6688 3.08586 8.71153C2.88774 8.27056 3.03263 8.03384 3.51918 8.02547C4.32712 8.00977 5.13495 8.01089 5.94384 8.02435C6.27221 8.02915 6.4896 8.2175 6.61639 8.52771C7.05351 9.60253 7.58838 10.6251 8.25975 11.573C8.43854 11.8253 8.62085 12.0777 8.88047 12.2553C9.16767 12.452 9.38635 12.3868 9.52146 12.0668C9.6072 11.864 9.64473 11.6455 9.66406 11.4282C9.72807 10.6807 9.7365 9.93448 9.62423 9.18959C9.55531 8.72471 9.29346 8.42377 8.82958 8.3358C8.59287 8.29094 8.62812 8.20286 8.74273 8.06775C8.9418 7.83472 9.12902 7.68967 9.50224 7.68967H12.3012C12.7418 7.77663 12.8397 7.97458 12.9 8.41796L12.9024 11.527C12.8976 11.6987 12.9881 12.208 13.2973 12.3216C13.5447 12.4025 13.7078 12.2045 13.8563 12.0476C14.5264 11.3364 15.0047 10.4958 15.432 9.62543C15.6217 9.24271 15.7847 8.84525 15.9427 8.44812C16.0598 8.15343 16.2435 8.00843 16.5754 8.01485L19.2693 8.01726C19.3491 8.01726 19.43 8.01843 19.5073 8.03167C19.9612 8.10903 20.0856 8.30429 19.9454 8.74756C19.7245 9.44301 19.2947 10.0226 18.8745 10.6048C18.4252 11.2264 17.9448 11.8267 17.4993 12.452C17.09 13.023 17.1225 13.3108 17.6309 13.8068Z" fill="white"/>
</g>
<defs>
<clipPath id="clip0">
<rect width="17" height="17" fill="white" transform="translate(3 4)"/>
</clipPath>
</defs>
</svg>
